<svg width="14" height="12" viewBox="0 0 14 12" fill="none" xmlns="http://www.w3.org/2000/svg">
<path d="M12.8007 2.76923H6.06667C5.81 2.76923 5.6 2.56154 5.6 2.30769C5.6 2.05385 5.81 1.84615 6.06667 1.84615H10.7333V1.18615C10.7333 0.530769 10.1967 0 9.534 0H1.19933C0.536667 0 0 0.530769 0 1.18615V10.8138C0 11.4692 0.536667 12 1.19933 12H12.8007C13.4633 12 14 11.4692 14 10.8138V3.95538C14 3.3 13.4633 2.76923 12.8007 2.76923ZM11.4333 10.6154H10.0333C9.646 10.6154 9.33333 10.3062 9.33333 9.92308C9.33333 9.54 9.646 9.23077 10.0333 9.23077H11.4333C11.8207 9.23077 12.1333 9.54 12.1333 9.92308C12.1333 10.3062 11.8207 10.6154 11.4333 10.6154Z" fill="black"/>
</svg>
